<?xml version="1.0" encoding="UTF-8" standalone="no"?>
<!DOCTYPE svg PUBLIC "-//W3C//DTD SVG 1.1//EN"
 "http://www.w3.org/Graphics/SVG/1.1/DTD/svg11.dtd">
<!-- Generated by graphviz version 2.43.0 (0)
 -->
<!-- Title: G Pages: 1 -->
<svg width="854pt" height="252pt"
 viewBox="5.76 5.76 847.76 246.29" xmlns="http://www.w3.org/2000/svg" xmlns:xlink="http://www.w3.org/1999/xlink">
<g id="graph0" class="graph" transform="scale(0.66 0.66) rotate(0) translate(21.72 361.72)">
<title>G</title>
<polygon fill="white" stroke="transparent" points="-12.96,12.96 -12.96,-352.96 1267.96,-352.96 1267.96,12.96 -12.96,12.96"/>
<text text-anchor="start" x="8" y="-314.1" font-family="Helvetica,sans-Serif" font-weight="bold" font-size="28.00">spadmic_global_csr</text>
<text text-anchor="start" x="8" y="-290.9" font-family="Helvetica,sans-Serif" font-size="12.00">Requested&#45;control bank with active&#45;state mirror, path&#45;idle visibility, and counted reject reporting.</text>
<text text-anchor="start" x="8" y="-277.5" font-family="Helvetica,sans-Serif" font-size="10.00" fill="#475569">TOP/rtl/spadmic_global_csr.sv</text>
<!-- csr_if -->
<g id="node1" class="node">
<title>csr_if</title>
<polygon fill="#eff6ff" stroke="transparent" points="258,-180 258,-260 515,-260 515,-180 258,-180"/>
<polygon fill="#2563eb" stroke="transparent" points="259.5,-228 259.5,-259 514.5,-259 514.5,-228 259.5,-228"/>
<text text-anchor="start" x="329" y="-241" font-family="Helvetica,sans-Serif" font-weight="bold" font-size="15.00" fill="white">CSR interface</text>
<polygon fill="#eff6ff" stroke="transparent" points="259.5,-181 259.5,-228 514.5,-228 514.5,-181 259.5,-181"/>
<text text-anchor="start" x="266.5" y="-213" font-family="DejaVu Sans Mono" font-size="10.00">csr_valid_i / csr_write_i</text>
<text text-anchor="start" x="266.5" y="-202" font-family="DejaVu Sans Mono" font-size="10.00">csr_addr_i / csr_wdata_i</text>
<text text-anchor="start" x="266.5" y="-191" font-family="DejaVu Sans Mono" font-size="10.00">csr_ready_o / csr_rvalid_o / csr_rdata_o</text>
<polygon fill="none" stroke="#2563eb" points="258,-180 258,-260 515,-260 515,-180 258,-180"/>
</g>
<!-- requested -->
<g id="node2" class="node">
<title>requested</title>
<polygon fill="#eff6ff" stroke="transparent" points="542,-169 542,-271 799,-271 799,-169 542,-169"/>
<polygon fill="#2563eb" stroke="transparent" points="543.5,-239 543.5,-270 798.5,-270 798.5,-239 543.5,-239"/>
<text text-anchor="start" x="555.5" y="-252" font-family="Helvetica,sans-Serif" font-weight="bold" font-size="15.00" fill="white">Requested image registers</text>
<polygon fill="#eff6ff" stroke="transparent" points="543.5,-170 543.5,-239 798.5,-239 798.5,-170 543.5,-170"/>
<text text-anchor="start" x="550.5" y="-224" font-family="DejaVu Sans Mono" font-size="10.00">req_global_enable_o</text>
<text text-anchor="start" x="550.5" y="-213" font-family="DejaVu Sans Mono" font-size="10.00">req_axis_enable_o[2:0]</text>
<text text-anchor="start" x="550.5" y="-202" font-family="DejaVu Sans Mono" font-size="10.00">req_position_enable_o</text>
<text text-anchor="start" x="550.5" y="-191" font-family="DejaVu Sans Mono" font-size="10.00">req_shared_tx_sel_o</text>
<text text-anchor="start" x="550.5" y="-180" font-family="DejaVu Sans Mono" font-size="10.00">req_tdc_input_sel_o / req_tdc_out_mode_o</text>
<polygon fill="none" stroke="#2563eb" points="542,-169 542,-271 799,-271 799,-169 542,-169"/>
</g>
<!-- csr_if&#45;&gt;requested -->
<!-- csr_if&#45;&gt;requested -->
<g id="edge6" class="edge">
<title>csr_if&#45;&gt;requested</title>
<path fill="none" stroke="#2563eb" stroke-width="1.6" d="M515.2,-206C515.2,-206 533.69,-206 533.69,-206"/>
<polygon fill="#2563eb" stroke="#2563eb" stroke-width="1.6" points="533.69,-208.8 541.69,-206 533.69,-203.2 533.69,-208.8"/>
<text text-anchor="middle" x="524.45" y="-198" font-family="Helvetica,sans-Serif" font-size="10.00" fill="#334155">writes requested image</text>
</g>
<!-- admission -->
<g id="node3" class="node">
<title>admission</title>
<polygon fill="#fff7ed" stroke="transparent" points="826,-174.5 826,-265.5 1049,-265.5 1049,-174.5 826,-174.5"/>
<polygon fill="#ea580c" stroke="transparent" points="827.5,-233 827.5,-264 1048.5,-264 1048.5,-233 827.5,-233"/>
<text text-anchor="start" x="834.5" y="-246" font-family="Helvetica,sans-Serif" font-weight="bold" font-size="15.00" fill="white">Admission + reject logic</text>
<polygon fill="#fff7ed" stroke="transparent" points="827.5,-175 827.5,-233 1048.5,-233 1048.5,-175 827.5,-175"/>
<text text-anchor="start" x="834.5" y="-218" font-family="DejaVu Sans" font-size="10.00">cfg_accept_i gate</text>
<text text-anchor="start" x="834.5" y="-207" font-family="DejaVu Sans" font-size="10.00">ctrl_change_req detect</text>
<text text-anchor="start" x="834.5" y="-196" font-family="DejaVu Sans" font-size="10.00">mode_reject_count_q</text>
<text text-anchor="start" x="837.5" y="-185" font-family="DejaVu Sans" font-size="10.00">mode_reject_sticky_q</text>
<polygon fill="none" stroke="#ea580c" points="826,-174.5 826,-265.5 1049,-265.5 1049,-174.5 826,-174.5"/>
</g>
<!-- requested&#45;&gt;admission -->
<!-- requested&#45;&gt;admission -->
<g id="edge7" class="edge">
<title>requested&#45;&gt;admission</title>
<path fill="none" stroke="#ea580c" stroke-width="1.6" d="M799.31,-204C799.31,-204 817.64,-204 817.64,-204"/>
<polygon fill="#ea580c" stroke="#ea580c" stroke-width="1.6" points="817.64,-206.8 825.64,-204 817.64,-201.2 817.64,-206.8"/>
<text text-anchor="middle" x="808.47" y="-196" font-family="Helvetica,sans-Serif" font-size="10.00" fill="#334155">ctrl_change_req</text>
</g>
<!-- readback -->
<g id="node6" class="node">
<title>readback</title>
<polygon fill="#eff6ff" stroke="transparent" points="562.5,-23.5 562.5,-114.5 778.5,-114.5 778.5,-23.5 562.5,-23.5"/>
<polygon fill="#2563eb" stroke="transparent" points="563.5,-82 563.5,-113 777.5,-113 777.5,-82 563.5,-82"/>
<text text-anchor="start" x="609" y="-95" font-family="Helvetica,sans-Serif" font-weight="bold" font-size="15.00" fill="white">Readback mux</text>
<polygon fill="#eff6ff" stroke="transparent" points="563.5,-24 563.5,-82 777.5,-82 777.5,-24 563.5,-24"/>
<text text-anchor="start" x="570.5" y="-67" font-family="DejaVu Sans" font-size="10.00">GLOBAL_ID / VERSION</text>
<text text-anchor="start" x="570.5" y="-56" font-family="DejaVu Sans" font-size="10.00">GLOBAL_CTRL request image</text>
<text text-anchor="start" x="570.5" y="-45" font-family="DejaVu Sans" font-size="10.00">GLOBAL_STATUS live image + path state</text>
<text text-anchor="start" x="572" y="-34" font-family="DejaVu Sans" font-size="10.00">GLOBAL_FAULT / GLOBAL_FAULT_COUNT</text>
<polygon fill="none" stroke="#2563eb" points="562.5,-23.5 562.5,-114.5 778.5,-114.5 778.5,-23.5 562.5,-23.5"/>
</g>
<!-- requested&#45;&gt;readback -->
<g id="edge11" class="edge">
<title>requested&#45;&gt;readback</title>
<path fill="none" stroke="#2563eb" stroke-width="1.6" d="M670.5,-168.88C670.5,-168.88 670.5,-122.75 670.5,-122.75"/>
<polygon fill="#2563eb" stroke="#2563eb" stroke-width="1.6" points="673.3,-122.75 670.5,-114.75 667.7,-122.75 673.3,-122.75"/>
<text text-anchor="middle" x="612.5" y="-148.81" font-family="Helvetica,sans-Serif" font-size="10.00" fill="#334155">requested image mirror</text>
</g>
<!-- out_req -->
<g id="node7" class="node">
<title>out_req</title>
<polygon fill="#eff6ff" stroke="transparent" points="1076,-185.5 1076,-254.5 1255,-254.5 1255,-185.5 1076,-185.5"/>
<polygon fill="#2563eb" stroke="transparent" points="1077.5,-222 1077.5,-253 1254.5,-253 1254.5,-222 1077.5,-222"/>
<text text-anchor="start" x="1084.5" y="-235" font-family="Helvetica,sans-Serif" font-weight="bold" font-size="15.00" fill="white">Requested outputs</text>
<polygon fill="#eff6ff" stroke="transparent" points="1077.5,-186 1077.5,-222 1254.5,-222 1254.5,-186 1077.5,-186"/>
<text text-anchor="start" x="1084.5" y="-207" font-family="DejaVu Sans Mono" font-size="10.00">req_* image</text>
<text text-anchor="start" x="1084.5" y="-196" font-family="DejaVu Sans Mono" font-size="10.00">cfg_update_o pulse</text>
<polygon fill="none" stroke="#2563eb" points="1076,-185.5 1076,-254.5 1255,-254.5 1255,-185.5 1076,-185.5"/>
</g>
<!-- admission&#45;&gt;out_req -->
<!-- admission&#45;&gt;out_req -->
<g id="edge8" class="edge">
<title>admission&#45;&gt;out_req</title>
<path fill="none" stroke="#2563eb" stroke-width="1.6" d="M1049.16,-208C1049.16,-208 1067.74,-208 1067.74,-208"/>
<polygon fill="#2563eb" stroke="#2563eb" stroke-width="1.6" points="1067.74,-210.8 1075.74,-208 1067.74,-205.2 1067.74,-210.8"/>
<text text-anchor="middle" x="1058.45" y="-200" font-family="Helvetica,sans-Serif" font-size="10.00" fill="#334155">req_* + cfg_update_o</text>
</g>
<!-- status_in -->
<g id="node4" class="node">
<title>status_in</title>
<polygon fill="#ecfdf5" stroke="transparent" points="0,-23.5 0,-114.5 215,-114.5 215,-23.5 0,-23.5"/>
<polygon fill="#059669" stroke="transparent" points="1.5,-82 1.5,-113 214.5,-113 214.5,-82 1.5,-82"/>
<text text-anchor="start" x="10" y="-95" font-family="Helvetica,sans-Serif" font-weight="bold" font-size="15.00" fill="white">Datapath status inputs</text>
<polygon fill="#ecfdf5" stroke="transparent" points="1.5,-24 1.5,-82 214.5,-82 214.5,-24 1.5,-24"/>
<text text-anchor="start" x="8.5" y="-67" font-family="DejaVu Sans Mono" font-size="10.00">tdc_tx_busy_i / tdc_pkt_pending_i</text>
<text text-anchor="start" x="8.5" y="-56" font-family="DejaVu Sans Mono" font-size="10.00">tdc_pkt_full_i</text>
<text text-anchor="start" x="8.5" y="-45" font-family="DejaVu Sans Mono" font-size="10.00">position busy / pending</text>
<text text-anchor="start" x="20.5" y="-34" font-family="DejaVu Sans Mono" font-size="10.00">position drop / glitch sticky</text>
<polygon fill="none" stroke="#059669" points="0,-23.5 0,-114.5 215,-114.5 215,-23.5 0,-23.5"/>
</g>
<!-- active -->
<g id="node5" class="node">
<title>active</title>
<polygon fill="#f8fafc" stroke="transparent" points="242,-18 242,-120 535,-120 535,-18 242,-18"/>
<polygon fill="#334155" stroke="transparent" points="243.5,-88 243.5,-119 534.5,-119 534.5,-88 243.5,-88"/>
<text text-anchor="start" x="304" y="-101" font-family="Helvetica,sans-Serif" font-weight="bold" font-size="15.00" fill="white">Active image mirror</text>
<polygon fill="#f8fafc" stroke="transparent" points="243.5,-19 243.5,-88 534.5,-88 534.5,-19 243.5,-19"/>
<text text-anchor="start" x="250.5" y="-73" font-family="DejaVu Sans Mono" font-size="10.00">active_global_enable_i</text>
<text text-anchor="start" x="250.5" y="-62" font-family="DejaVu Sans Mono" font-size="10.00">active_axis_enable_i</text>
<text text-anchor="start" x="250.5" y="-51" font-family="DejaVu Sans Mono" font-size="10.00">active_position_enable_i</text>
<text text-anchor="start" x="250.5" y="-40" font-family="DejaVu Sans Mono" font-size="10.00">active_shared_tx_sel_i</text>
<text text-anchor="start" x="250.5" y="-29" font-family="DejaVu Sans Mono" font-size="10.00">active_tdc_input_sel_i / active_tdc_out_mode_i</text>
<polygon fill="none" stroke="#334155" points="242,-18 242,-120 535,-120 535,-18 242,-18"/>
</g>
<!-- status_in&#45;&gt;active -->
<!-- status_in&#45;&gt;readback -->
<g id="edge9" class="edge">
<title>status_in&#45;&gt;readback</title>
<path fill="none" stroke="#059669" stroke-width="1.6" d="M107.5,-23.36C107.5,-10.53 107.5,0 107.5,0 107.5,0 670.5,0 670.5,0 670.5,0 670.5,-15.36 670.5,-15.36"/>
<polygon fill="#059669" stroke="#059669" stroke-width="1.6" points="667.7,-15.36 670.5,-23.36 673.3,-15.36 667.7,-15.36"/>
<text text-anchor="middle" x="344" y="-3" font-family="Helvetica,sans-Serif" font-size="10.00" fill="#334155">fault / path state</text>
</g>
<!-- active&#45;&gt;readback -->
<!-- active&#45;&gt;readback -->
<g id="edge10" class="edge">
<title>active&#45;&gt;readback</title>
<path fill="none" stroke="#334155" stroke-width="1.6" d="M535.28,-53C535.28,-53 554.33,-53 554.33,-53"/>
<polygon fill="#334155" stroke="#334155" stroke-width="1.6" points="554.33,-55.8 562.33,-53 554.33,-50.2 554.33,-55.8"/>
<text text-anchor="middle" x="544.81" y="-45" font-family="Helvetica,sans-Serif" font-size="10.00" fill="#334155">active image mirror</text>
</g>
</g>
</svg>
