<?xml version="1.0" encoding="UTF-8" standalone="no"?>
<!DOCTYPE svg PUBLIC "-//W3C//DTD SVG 1.1//EN"
 "http://www.w3.org/Graphics/SVG/1.1/DTD/svg11.dtd">
<!-- Generated by graphviz version 2.43.0 (0)
 -->
<!-- Title: G Pages: 1 -->
<svg width="854pt" height="125pt"
 viewBox="5.76 5.76 847.76 119.29" xmlns="http://www.w3.org/2000/svg" xmlns:xlink="http://www.w3.org/1999/xlink">
<g id="graph0" class="graph" transform="scale(0.56 0.56) rotate(0) translate(23.31 201.31)">
<title>G</title>
<polygon fill="white" stroke="transparent" points="-12.96,12.96 -12.96,-190.96 1499.46,-190.96 1499.46,12.96 -12.96,12.96"/>
<text text-anchor="start" x="8.5" y="-152.1" font-family="Helvetica,sans-Serif" font-weight="bold" font-size="28.00">spadmic_event_coordinator</text>
<text text-anchor="start" x="8.5" y="-128.9" font-family="Helvetica,sans-Serif" font-size="12.00">One&#45;event&#45;at&#45;a&#45;time lifecycle with frozen source masks, reset acknowledgements, and one shared event ID.</text>
<text text-anchor="start" x="8.5" y="-115.5" font-family="Helvetica,sans-Serif" font-size="10.00" fill="#475569">TOP/rtl/spadmic_event_coordinator.sv</text>
<!-- trigger -->
<g id="node1" class="node">
<title>trigger</title>
<polygon fill="#ecfdf5" stroke="transparent" points="0,0 0,-80 182,-80 182,0 0,0"/>
<polygon fill="#059669" stroke="transparent" points="1,-48 1,-79 181,-79 181,-48 1,-48"/>
<text text-anchor="start" x="19" y="-61" font-family="Helvetica,sans-Serif" font-weight="bold" font-size="15.00" fill="white">Accepted trigger</text>
<polygon fill="#ecfdf5" stroke="transparent" points="1,-1 1,-48 181,-48 181,-1 1,-1"/>
<text text-anchor="start" x="8" y="-33" font-family="DejaVu Sans" font-size="10.00">normal matrix event</text>
<text text-anchor="start" x="8" y="-22" font-family="DejaVu Sans" font-size="10.00">or selected calibration start</text>
<text text-anchor="start" x="8" y="-11" font-family="DejaVu Sans" font-size="10.00">resources ready before admission</text>
<polygon fill="none" stroke="#059669" points="0,0 0,-80 182,-80 182,0 0,0"/>
</g>
<!-- idle -->
<g id="node2" class="node">
<title>idle</title>
<polygon fill="#f8fafc" stroke="transparent" points="209.5,-5.5 209.5,-74.5 410.5,-74.5 410.5,-5.5 209.5,-5.5"/>
<polygon fill="#334155" stroke="transparent" points="211,-42 211,-73 410,-73 410,-42 211,-42"/>
<text text-anchor="start" x="271" y="-55" font-family="Helvetica,sans-Serif" font-weight="bold" font-size="15.00" fill="white">EVT_IDLE</text>
<polygon fill="#f8fafc" stroke="transparent" points="211,-6 211,-42 410,-42 410,-6 211,-6"/>
<text text-anchor="start" x="218" y="-27" font-family="DejaVu Sans" font-size="10.00">compute required packet/reset masks</text>
<text text-anchor="start" x="240" y="-16" font-family="DejaVu Sans" font-size="10.00">allocate one shared event ID</text>
<polygon fill="none" stroke="#334155" points="209.5,-5.5 209.5,-74.5 410.5,-74.5 410.5,-5.5 209.5,-5.5"/>
</g>
<!-- trigger&#45;&gt;idle -->
<!-- trigger&#45;&gt;idle -->
<g id="edge7" class="edge">
<title>trigger&#45;&gt;idle</title>
<path fill="none" stroke="#059669" stroke-width="1.6" d="M182.29,-28C182.29,-28 201.3,-28 201.3,-28"/>
<polygon fill="#059669" stroke="#059669" stroke-width="1.6" points="201.3,-30.8 209.3,-28 201.3,-25.2 201.3,-30.8"/>
<text text-anchor="middle" x="191.8" y="-20" font-family="Helvetica,sans-Serif" font-size="10.00" fill="#334155">event trigger</text>
</g>
<!-- ack -->
<g id="node3" class="node">
<title>ack</title>
<polygon fill="#ecfdf5" stroke="transparent" points="437.5,-5.5 437.5,-74.5 666.5,-74.5 666.5,-5.5 437.5,-5.5"/>
<polygon fill="#059669" stroke="transparent" points="439,-42 439,-73 666,-73 666,-42 439,-42"/>
<text text-anchor="start" x="460" y="-55" font-family="Helvetica,sans-Serif" font-weight="bold" font-size="15.00" fill="white">EVT_WAIT_RESET_ACK</text>
<polygon fill="#ecfdf5" stroke="transparent" points="439,-6 439,-42 666,-42 666,-6 439,-6"/>
<text text-anchor="start" x="446" y="-27" font-family="DejaVu Sans" font-size="10.00">wait snapshot capture</text>
<text text-anchor="start" x="446" y="-16" font-family="DejaVu Sans" font-size="10.00">wait selected TDC start acknowledgements</text>
<polygon fill="none" stroke="#059669" points="437.5,-5.5 437.5,-74.5 666.5,-74.5 666.5,-5.5 437.5,-5.5"/>
</g>
<!-- idle&#45;&gt;ack -->
<!-- idle&#45;&gt;ack -->
<g id="edge8" class="edge">
<title>idle&#45;&gt;ack</title>
<path fill="none" stroke="#2563eb" stroke-width="1.6" d="M410.53,-28C410.53,-28 429.27,-28 429.27,-28"/>
<polygon fill="#2563eb" stroke="#2563eb" stroke-width="1.6" points="429.27,-30.8 437.27,-28 429.27,-25.2 429.27,-30.8"/>
<text text-anchor="middle" x="419.9" y="-20" font-family="Helvetica,sans-Serif" font-size="10.00" fill="#334155">freeze masks</text>
</g>
<!-- reset -->
<g id="node4" class="node">
<title>reset</title>
<polygon fill="#eff6ff" stroke="transparent" points="694,-5.5 694,-74.5 910,-74.5 910,-5.5 694,-5.5"/>
<polygon fill="#2563eb" stroke="transparent" points="695,-42 695,-73 909,-73 909,-42 695,-42"/>
<text text-anchor="start" x="702" y="-55" font-family="Helvetica,sans-Serif" font-weight="bold" font-size="15.00" fill="white">EVT_WAIT_RESET_DONE</text>
<polygon fill="#eff6ff" stroke="transparent" points="695,-6 695,-42 909,-42 909,-6 695,-6"/>
<text text-anchor="start" x="702" y="-27" font-family="DejaVu Sans" font-size="10.00">optional automatic matrix reset</text>
<text text-anchor="start" x="723.5" y="-16" font-family="DejaVu Sans" font-size="10.00">width from RESET_CFG</text>
<polygon fill="none" stroke="#2563eb" points="694,-5.5 694,-74.5 910,-74.5 910,-5.5 694,-5.5"/>
</g>
<!-- ack&#45;&gt;reset -->
<!-- ack&#45;&gt;reset -->
<g id="edge9" class="edge">
<title>ack&#45;&gt;reset</title>
<path fill="none" stroke="#2563eb" stroke-width="1.6" d="M666.76,-28C666.76,-28 685.74,-28 685.74,-28"/>
<polygon fill="#2563eb" stroke="#2563eb" stroke-width="1.6" points="685.74,-30.8 693.74,-28 685.74,-25.2 685.74,-30.8"/>
<text text-anchor="middle" x="676.25" y="-20" font-family="Helvetica,sans-Serif" font-size="10.00" fill="#334155">auto reset enabled</text>
</g>
<!-- packets -->
<g id="node5" class="node">
<title>packets</title>
<polygon fill="#f5f3ff" stroke="transparent" points="937.5,-5.5 937.5,-74.5 1126.5,-74.5 1126.5,-5.5 937.5,-5.5"/>
<polygon fill="#7c3aed" stroke="transparent" points="939,-42 939,-73 1126,-73 1126,-42 939,-42"/>
<text text-anchor="start" x="949.5" y="-55" font-family="Helvetica,sans-Serif" font-weight="bold" font-size="15.00" fill="white">EVT_WAIT_PACKETS</text>
<polygon fill="#f5f3ff" stroke="transparent" points="939,-6 939,-42 1126,-42 1126,-6 939,-6"/>
<text text-anchor="start" x="946" y="-27" font-family="DejaVu Sans" font-size="10.00">wait every required source pending</text>
<text text-anchor="start" x="986.5" y="-16" font-family="DejaVu Sans" font-size="10.00">frozen event mask</text>
<polygon fill="none" stroke="#7c3aed" points="937.5,-5.5 937.5,-74.5 1126.5,-74.5 1126.5,-5.5 937.5,-5.5"/>
</g>
<!-- ack&#45;&gt;packets -->
<g id="edge10" class="edge">
<title>ack&#45;&gt;packets</title>
<path fill="none" stroke="#7c3aed" stroke-width="1.6" d="M552,-74.74C552,-87.1 552,-98 552,-98 552,-98 1032,-98 1032,-98 1032,-98 1032,-82.74 1032,-82.74"/>
<polygon fill="#7c3aed" stroke="#7c3aed" stroke-width="1.6" points="1034.8,-82.74 1032,-74.74 1029.2,-82.74 1034.8,-82.74"/>
<text text-anchor="middle" x="768" y="-101" font-family="Helvetica,sans-Serif" font-size="10.00" fill="#334155">no reset</text>
</g>
<!-- reset&#45;&gt;packets -->
<!-- reset&#45;&gt;packets -->
<g id="edge11" class="edge">
<title>reset&#45;&gt;packets</title>
<path fill="none" stroke="#7c3aed" stroke-width="1.6" d="M910.27,-28C910.27,-28 929.47,-28 929.47,-28"/>
<polygon fill="#7c3aed" stroke="#7c3aed" stroke-width="1.6" points="929.47,-30.8 937.47,-28 929.47,-25.2 929.47,-30.8"/>
<text text-anchor="middle" x="919.87" y="-20" font-family="Helvetica,sans-Serif" font-size="10.00" fill="#334155">reset done</text>
</g>
<!-- transmit -->
<g id="node6" class="node">
<title>transmit</title>
<polygon fill="#fff7ed" stroke="transparent" points="1154,-5.5 1154,-74.5 1326,-74.5 1326,-5.5 1154,-5.5"/>
<polygon fill="#ea580c" stroke="transparent" points="1155,-42 1155,-73 1325,-73 1325,-42 1155,-42"/>
<text text-anchor="start" x="1176.5" y="-55" font-family="Helvetica,sans-Serif" font-weight="bold" font-size="15.00" fill="white">EVT_TRANSMIT</text>
<polygon fill="#fff7ed" stroke="transparent" points="1155,-6 1155,-42 1325,-42 1325,-6 1155,-6"/>
<text text-anchor="start" x="1162" y="-27" font-family="DejaVu Sans" font-size="10.00">start one correlated bundle</text>
<text text-anchor="start" x="1162" y="-16" font-family="DejaVu Sans" font-size="10.00">wait ordered bundle completion</text>
<polygon fill="none" stroke="#ea580c" points="1154,-5.5 1154,-74.5 1326,-74.5 1326,-5.5 1154,-5.5"/>
</g>
<!-- packets&#45;&gt;transmit -->
<!-- packets&#45;&gt;transmit -->
<g id="edge12" class="edge">
<title>packets&#45;&gt;transmit</title>
<path fill="none" stroke="#ea580c" stroke-width="1.6" d="M1126.57,-28C1126.57,-28 1145.94,-28 1145.94,-28"/>
<polygon fill="#ea580c" stroke="#ea580c" stroke-width="1.6" points="1145.94,-30.8 1153.94,-28 1145.94,-25.2 1145.94,-30.8"/>
<text text-anchor="middle" x="1136.25" y="-20" font-family="Helvetica,sans-Serif" font-size="10.00" fill="#334155">all sources pending</text>
</g>
<!-- rearm -->
<g id="node7" class="node">
<title>rearm</title>
<polygon fill="#f8fafc" stroke="transparent" points="1353.5,-5.5 1353.5,-74.5 1486.5,-74.5 1486.5,-5.5 1353.5,-5.5"/>
<polygon fill="#334155" stroke="transparent" points="1355,-42 1355,-73 1486,-73 1486,-42 1355,-42"/>
<text text-anchor="start" x="1370.5" y="-55" font-family="Helvetica,sans-Serif" font-weight="bold" font-size="15.00" fill="white">EVT_REARM</text>
<polygon fill="#f8fafc" stroke="transparent" points="1355,-6 1355,-42 1486,-42 1486,-6 1355,-6"/>
<text text-anchor="start" x="1362" y="-27" font-family="DejaVu Sans" font-size="10.00">wait matrix inputs clear</text>
<text text-anchor="start" x="1376.5" y="-16" font-family="DejaVu Sans" font-size="10.00">return to safe idle</text>
<polygon fill="none" stroke="#334155" points="1353.5,-5.5 1353.5,-74.5 1486.5,-74.5 1486.5,-5.5 1353.5,-5.5"/>
</g>
<!-- transmit&#45;&gt;rearm -->
<!-- transmit&#45;&gt;rearm -->
<g id="edge13" class="edge">
<title>transmit&#45;&gt;rearm</title>
<path fill="none" stroke="#ea580c" stroke-width="1.6" d="M1326.05,-28C1326.05,-28 1345.48,-28 1345.48,-28"/>
<polygon fill="#ea580c" stroke="#ea580c" stroke-width="1.6" points="1345.48,-30.8 1353.48,-28 1345.48,-25.2 1345.48,-30.8"/>
<text text-anchor="middle" x="1335.76" y="-20" font-family="Helvetica,sans-Serif" font-size="10.00" fill="#334155">bundle done</text>
</g>
</g>
</svg>
